<?xml version="1.0" encoding="UTF-8"?>
<svg xmlns="http://www.w3.org/2000/svg" viewBox="0 0 1280 720" font-family="ui-sans-serif, system-ui, -apple-system, sans-serif">
  <style>
    .title { font-size: 26px; font-weight: 700; fill: #172033; }
    .h { font-size: 16px; font-weight: 650; fill: #172033; }
    .panel-title { font-size: 15px; font-weight: 700; fill: #172033; }
    .lbl { font-size: 14px; font-weight: 600; fill: #172033; }
    .sub { font-size: 12px; fill: #5b6475; }
    .sub-sm { font-size: 11px; fill: #5b6475; }
    .code { font-family: ui-monospace, "SF Mono", Menlo, monospace; font-size: 12px; fill: #172033; }
    .box { stroke: #64748b; stroke-width: 1; fill: #f8fafc; }
    .queue-box { stroke: #166534; stroke-width: 1.6; fill: #f0fdf4; }
    .rnode-safe { stroke: #166534; stroke-width: 1.4; fill: #bbf7d0; }
    .rnode-warn { stroke: #b45309; stroke-width: 1.6; fill: #fde68a; }
    .rnode-sing { stroke: #475569; stroke-width: 1.4; fill: #cbd5e1; }
    .rung-safest { fill: #86efac; stroke: #166534; stroke-width: 1.4; }
    .rung-base   { fill: #f1f5f9; stroke: #475569; stroke-width: 1.6; }
    .rung-mid    { fill: #fed7aa; stroke: #b45309; stroke-width: 1.4; }
    .rung-risky  { fill: #fecaca; stroke: #991b1b; stroke-width: 1.4; }
    .rung-lbl { font-size: 15px; font-weight: 700; fill: #172033; }
    .rung-sub { font-size: 11px; fill: #5b6475; }
    .arrow-corr { stroke: #b45309; stroke-width: 2.2; fill: none; }
    .arrow-speed { stroke: #166534; stroke-width: 1.8; fill: none; stroke-dasharray: 5 4; }
    .verdict-accept { font-weight: 700; fill: #166534; }
    .verdict-reject { font-weight: 700; fill: #991b1b; }
    .verdict-downgrade { font-weight: 700; fill: #b45309; }
    .th { font-size: 12px; font-weight: 700; fill: #172033; }
    .td { font-size: 12px; fill: #172033; }
  </style>
  <defs>
    <marker id="arrow-corr-m" viewBox="0 0 10 10" refX="9" refY="5" markerWidth="7" markerHeight="7" orient="auto-start-reverse">
      <path d="M0,0 L10,5 L0,10 z" fill="#b45309"/>
    </marker>
    <marker id="arrow-speed-m" viewBox="0 0 10 10" refX="9" refY="5" markerWidth="7" markerHeight="7" orient="auto-start-reverse">
      <path d="M0,0 L10,5 L0,10 z" fill="#166534"/>
    </marker>
  </defs>

  <!-- Title -->
  <text x="40" y="44" class="title">Strategy walk — <tspan style="fill:#166534">speedup</tspan> phase</text>
  <text x="40" y="66" class="sub">Every region attempts one rung down from its post-correctness state. Queue ordered by flop weight — highest-throughput regions first.</text>

  <!-- ============ LEFT: precision ladder ============ -->
  <text x="40" y="108" class="h">Precision ladder</text>

  <g transform="translate(60, 130)">
    <!-- dd rung (top) -->
    <rect x="0" y="0" width="200" height="60" rx="8" class="rung-safest"/>
    <text x="100" y="26" text-anchor="middle" class="rung-lbl">dd</text>
    <text x="100" y="46" text-anchor="middle" class="rung-sub">106-bit mantissa · oracle</text>

    <!-- double rung (baseline) -->
    <rect x="0" y="90" width="200" height="60" rx="8" class="rung-base"/>
    <text x="100" y="116" text-anchor="middle" class="rung-lbl">double</text>
    <text x="100" y="136" text-anchor="middle" class="rung-sub">53-bit mantissa · baseline</text>

    <!-- ff rung -->
    <rect x="0" y="180" width="200" height="60" rx="8" class="rung-mid"/>
    <text x="100" y="206" text-anchor="middle" class="rung-lbl">ff</text>
    <text x="100" y="226" text-anchor="middle" class="rung-sub">48-bit mantissa · pair-of-floats</text>

    <!-- float rung (bottom) -->
    <rect x="0" y="270" width="200" height="60" rx="8" class="rung-risky"/>
    <text x="100" y="296" text-anchor="middle" class="rung-lbl">float</text>
    <text x="100" y="316" text-anchor="middle" class="rung-sub">24-bit mantissa · fastest</text>

    <!-- Correctness arrows (solid): double → dd and double → ff -->
    <path d="M215 105 C 270 105, 270 30, 215 30" class="arrow-corr" marker-end="url(#arrow-corr-m)"/>
    <path d="M215 135 C 270 135, 270 210, 215 210" class="arrow-corr" marker-end="url(#arrow-corr-m)"/>
    <text x="278" y="122" class="lbl" style="fill:#b45309">correctness</text>

    <!-- Speedup arrows (dotted): same arc radius across all three -->
    <path d="M215 30 C 385 30, 385 120, 215 120" class="arrow-speed" marker-end="url(#arrow-speed-m)"/>
    <path d="M215 120 C 385 120, 385 210, 215 210" class="arrow-speed" marker-end="url(#arrow-speed-m)"/>
    <path d="M215 210 C 385 210, 385 300, 215 300" class="arrow-speed" marker-end="url(#arrow-speed-m)"/>
    <text x="395" y="170" class="lbl" style="fill:#166534">speedup</text>

    <!-- Note under the ladder -->
    <text x="0" y="380" class="sub">↑ safer / slower</text>
    <text x="0" y="398" class="sub">↓ faster / riskier</text>
    <text x="0" y="418" class="sub">walk never re-promotes after accept</text>
  </g>

  <!-- ============ MIDDLE: speedup queue ============ -->
  <text x="500" y="108" class="h">Speedup queue  (flop-weighted)</text>

  <g transform="translate(500, 130)">
    <rect x="0" y="0" width="320" height="490" rx="8" class="queue-box"/>

    <text x="160" y="26" text-anchor="middle" class="panel-title">6 regions, highest flop weight first</text>

    <g transform="translate(16, 46)">
      <rect x="0" y="0" width="288" height="46" rx="6" class="rnode-safe"/>
      <text x="10" y="18" class="lbl">1.  R6   ff → float</text>
      <text x="10" y="36" class="sub-sm">flop weight: 200  ·  1 mul, 1 add, 1 sub</text>
    </g>
    <g transform="translate(16, 102)">
      <rect x="0" y="0" width="288" height="46" rx="6" class="rnode-safe"/>
      <text x="10" y="18" class="lbl">2.  R4   dd → double</text>
      <text x="10" y="36" class="sub-sm">flop weight: 100  ·  post-correctness dd</text>
    </g>
    <g transform="translate(16, 158)">
      <rect x="0" y="0" width="288" height="46" rx="6" class="rnode-safe"/>
      <text x="10" y="18" class="lbl">3.  R5   ff → float</text>
      <text x="10" y="36" class="sub-sm">flop weight: 80  ·  1 sqrt, 1 mul, 1 add</text>
    </g>
    <g transform="translate(16, 214)">
      <rect x="0" y="0" width="288" height="46" rx="6" class="rnode-safe"/>
      <text x="10" y="18" class="lbl">4.  R1   ff → float</text>
      <text x="10" y="36" class="sub-sm">flop weight: 50  ·  2 add, 2 mul</text>
    </g>
    <g transform="translate(16, 270)">
      <rect x="0" y="0" width="288" height="46" rx="6" class="rnode-sing"/>
      <text x="10" y="18" class="lbl">5.  R3   ff → float</text>
      <text x="10" y="36" class="sub-sm">flop weight: 45  ·  1 log, 1 add  (log)</text>
    </g>
    <g transform="translate(16, 326)">
      <rect x="0" y="0" width="288" height="46" rx="6" class="rnode-warn"/>
      <text x="10" y="18" class="lbl">6.  R2   ff → float</text>
      <text x="10" y="36" class="sub-sm">flop weight: 30  ·  2 mul, 1 sub  (cancel)</text>
    </g>

    <!-- Prune-check callout -->
    <g transform="translate(16, 400)">
      <text x="0" y="0" class="lbl">Prune check at dequeue</text>
      <text x="0" y="18" class="sub-sm">float_range_ok: R2 flagged — target downgraded</text>
      <text x="0" y="34" class="sub-sm">from float back to ff (no-op, already at ff)</text>
      <text x="0" y="52" class="sub-sm">chain-dedup: reuse ff-shims from correctness phase</text>
    </g>
  </g>

  <!-- ============ RIGHT: walk trace + result ============ -->
  <text x="850" y="108" class="h">Walk trace</text>

  <g transform="translate(850, 130)">
    <rect x="0" y="0" width="410" height="380" rx="8" class="box"/>

    <!-- header -->
    <rect x="0" y="0" width="410" height="26" fill="#e2e8f0" stroke="#64748b" stroke-width="1"/>
    <text x="10" y="18" class="th">step</text>
    <text x="50" y="18" class="th">region</text>
    <text x="115" y="18" class="th">attempt</text>
    <text x="230" y="18" class="th">verdict</text>
    <text x="310" y="18" class="th">new state</text>

    <!-- rows: background matches per-region character (queue color) -->
    <g font-size="12" fill="#172033">
      <!-- step 1: R6 ff → float accept (green region) -->
      <rect x="0" y="26" width="410" height="28" fill="#bbf7d0" stroke="#86efac"/>
      <text x="10" y="44">1</text>
      <text x="50" y="44">R6</text>
      <text x="115" y="44">ff → float</text>
      <text x="230" y="44" class="verdict-accept">accept</text>
      <text x="310" y="44">R6 = float</text>

      <!-- step 2: R4 dd → double REJECT (safe region background, red verdict text) -->
      <rect x="0" y="54" width="410" height="62" fill="#bbf7d0" stroke="#86efac"/>
      <text x="10" y="74">2</text>
      <text x="50" y="74">R4</text>
      <text x="115" y="74">dd → double</text>
      <text x="230" y="74" class="verdict-reject">reject</text>
      <text x="310" y="74">R4 = dd</text>
      <text x="50" y="92" class="sub-sm" font-style="italic">R2 now at ff (worse precision) makes R4's cascade risk</text>
      <text x="50" y="108" class="sub-sm" font-style="italic">stronger, not weaker — dd stays necessary</text>

      <!-- step 3: R5 ff → float accept -->
      <rect x="0" y="116" width="410" height="28" fill="#bbf7d0" stroke="#86efac"/>
      <text x="10" y="134">3</text>
      <text x="50" y="134">R5</text>
      <text x="115" y="134">ff → float</text>
      <text x="230" y="134" class="verdict-accept">accept</text>
      <text x="310" y="134">R5 = float</text>

      <!-- step 4: R1 ff → float accept -->
      <rect x="0" y="144" width="410" height="28" fill="#bbf7d0" stroke="#86efac"/>
      <text x="10" y="162">4</text>
      <text x="50" y="162">R1</text>
      <text x="115" y="162">ff → float</text>
      <text x="230" y="162" class="verdict-accept">accept</text>
      <text x="310" y="162">R1 = float</text>

      <!-- step 5: R3 ff → float reject (grey region, log near root) -->
      <rect x="0" y="172" width="410" height="62" fill="#cbd5e1" stroke="#94a3b8"/>
      <text x="10" y="192">5</text>
      <text x="50" y="192">R3</text>
      <text x="115" y="192">ff → float</text>
      <text x="230" y="192" class="verdict-reject">reject</text>
      <text x="310" y="192">R3 = ff</text>
      <text x="50" y="210" class="sub-sm" font-style="italic">log near 1: 24-bit mantissa can't hold small-arg</text>
      <text x="50" y="226" class="sub-sm" font-style="italic">precision; ff's 48 bits was already the sweet spot</text>

      <!-- step 6: R2 float_range_ok prune → ff (amber region, prune text amber) -->
      <rect x="0" y="234" width="410" height="62" fill="#fde68a" stroke="#fcd34d"/>
      <text x="10" y="254">6</text>
      <text x="50" y="254">R2</text>
      <text x="115" y="254">ff → ff*</text>
      <text x="230" y="254" class="verdict-downgrade">prune</text>
      <text x="310" y="254">R2 = ff</text>
      <text x="50" y="272" class="sub-sm" font-style="italic">* float_range_ok = ✗ downgrades target from float</text>
      <text x="50" y="288" class="sub-sm" font-style="italic">back to ff; chain-dedup skips build (already at ff)</text>
    </g>

    <g transform="translate(10, 316)">
      <text x="0" y="0" class="sub-sm">Correctness up-bumps defensively; speedup relaxes where safe</text>
      <text x="0" y="16" class="sub-sm">(R6, R5, R1) and leaves the rest at their safe rungs.</text>
      <text x="0" y="38" class="sub-sm">Same no-retry rule: each (region, target) pair tried at most once.</text>
      <text x="0" y="54" class="sub-sm">All accepts monotone-downward — no rollback, no re-promotion.</text>
    </g>
  </g>

  <!-- Precision distribution after speedup phase -->
  <g transform="translate(850, 540)">
    <text x="0" y="0" class="h">State after <tspan style="fill:#166534">speedup</tspan> phase</text>
    <rect x="0" y="14" width="410" height="80" rx="6" class="box"/>

    <text x="16" y="38" class="lbl">dd: 1</text>
    <text x="120" y="38" class="sub">R4  (up-bumped in correctness, held)</text>

    <text x="16" y="60" class="lbl">float: 3</text>
    <text x="120" y="60" class="sub">R1, R5, R6</text>

    <text x="16" y="82" class="lbl">ff: 2</text>
    <text x="120" y="82" class="sub">R2 (range-safety), R3 (log rejected)</text>
  </g>
</svg>
