<?xml version="1.0" encoding="UTF-8"?>
<svg xmlns="http://www.w3.org/2000/svg" viewBox="0 0 1280 720" font-family="ui-sans-serif, system-ui, -apple-system, sans-serif">
  <style>
    .title { font-size: 26px; font-weight: 700; fill: #172033; }
    .h { font-size: 16px; font-weight: 650; fill: #172033; }
    .panel-title { font-size: 15px; font-weight: 700; fill: #172033; }
    .lbl { font-size: 14px; font-weight: 600; fill: #172033; }
    .sub { font-size: 12px; fill: #5b6475; }
    .sub-sm { font-size: 11px; fill: #5b6475; }
    .code { font-family: ui-monospace, "SF Mono", Menlo, monospace; font-size: 12px; fill: #172033; }
    .box { stroke: #64748b; stroke-width: 1; fill: #f8fafc; }
    .queue-box { stroke: #64748b; stroke-width: 1.6; fill: #f1f5f9; }
    .rnode-safe { stroke: #166534; stroke-width: 1.4; fill: #bbf7d0; }
    .rnode-warn { stroke: #b45309; stroke-width: 1.6; fill: #fde68a; }
    .rnode-sing { stroke: #475569; stroke-width: 1.4; fill: #cbd5e1; }
    .rung-safest { fill: #86efac; stroke: #166534; stroke-width: 1.4; }
    .rung-base   { fill: #f1f5f9; stroke: #475569; stroke-width: 1.6; }
    .rung-mid    { fill: #fed7aa; stroke: #b45309; stroke-width: 1.4; }
    .rung-risky  { fill: #fecaca; stroke: #991b1b; stroke-width: 1.4; }
    .rung-lbl { font-size: 15px; font-weight: 700; fill: #172033; }
    .rung-sub { font-size: 11px; fill: #5b6475; }
    .arrow-corr { stroke: #b45309; stroke-width: 2.2; fill: none; }
    .arrow-speed { stroke: #64748b; stroke-width: 1.8; fill: none; stroke-dasharray: 5 4; }
    .verdict-accept { font-weight: 700; fill: #166534; }
    .verdict-reject { font-weight: 700; fill: #991b1b; }
    .verdict-downgrade { font-weight: 700; fill: #b45309; }
    .th { font-size: 12px; font-weight: 700; fill: #172033; }
    .td { font-size: 12px; fill: #172033; }
  </style>
  <defs>
    <marker id="arrow-corr-m" viewBox="0 0 10 10" refX="9" refY="5" markerWidth="7" markerHeight="7" orient="auto-start-reverse">
      <path d="M0,0 L10,5 L0,10 z" fill="#b45309"/>
    </marker>
    <marker id="arrow-speed-m" viewBox="0 0 10 10" refX="9" refY="5" markerWidth="7" markerHeight="7" orient="auto-start-reverse">
      <path d="M0,0 L10,5 L0,10 z" fill="#64748b"/>
    </marker>
  </defs>

  <!-- Title -->
  <text x="40" y="44" class="title">Strategy walk — <tspan style="fill:#64748b">speedup</tspan> phase</text>
  <text x="40" y="66" class="sub">Every region attempts an aggressive demotion from double baseline. Queue ordered by flop weight — highest-throughput regions first.</text>

  <!-- ============ LEFT: precision ladder (unchanged) ============ -->
  <text x="40" y="108" class="h">Precision ladder</text>

  <g transform="translate(60, 130)">
    <!-- dd rung (top) -->
    <rect x="0" y="0" width="200" height="60" rx="8" class="rung-safest"/>
    <text x="100" y="26" text-anchor="middle" class="rung-lbl">dd</text>
    <text x="100" y="46" text-anchor="middle" class="rung-sub">106-bit mantissa · oracle</text>

    <!-- double rung (baseline) -->
    <rect x="0" y="90" width="200" height="60" rx="8" class="rung-base"/>
    <text x="100" y="116" text-anchor="middle" class="rung-lbl">double</text>
    <text x="100" y="136" text-anchor="middle" class="rung-sub">53-bit mantissa · baseline</text>

    <!-- ff rung -->
    <rect x="0" y="180" width="200" height="60" rx="8" class="rung-mid"/>
    <text x="100" y="206" text-anchor="middle" class="rung-lbl">ff</text>
    <text x="100" y="226" text-anchor="middle" class="rung-sub">48-bit mantissa · pair-of-floats</text>

    <!-- float rung (bottom) -->
    <rect x="0" y="270" width="200" height="60" rx="8" class="rung-risky"/>
    <text x="100" y="296" text-anchor="middle" class="rung-lbl">float</text>
    <text x="100" y="316" text-anchor="middle" class="rung-sub">24-bit mantissa · fastest</text>

    <!-- Correctness arrows (solid): double → dd and double → ff -->
    <path d="M215 105 C 270 105, 270 30, 215 30" class="arrow-corr" marker-end="url(#arrow-corr-m)"/>
    <path d="M215 135 C 270 135, 270 210, 215 210" class="arrow-corr" marker-end="url(#arrow-corr-m)"/>
    <text x="278" y="122" class="lbl" style="fill:#b45309">correctness</text>

    <!-- Speedup arrows (dotted): double → ff and double → float -->
    <path d="M215 135 C 330 135, 330 210, 215 210" class="arrow-speed" marker-end="url(#arrow-speed-m)"/>
    <path d="M215 135 C 380 135, 380 300, 215 300" class="arrow-speed" marker-end="url(#arrow-speed-m)"/>
    <text x="340" y="188" class="lbl" style="fill:#64748b">speedup</text>

    <!-- Note under the ladder -->
    <text x="0" y="380" class="sub">↑ safer / slower</text>
    <text x="0" y="398" class="sub">↓ faster / riskier</text>
    <text x="0" y="418" class="sub">walk never re-promotes after accept</text>
  </g>

  <!-- ============ MIDDLE: speedup queue ============ -->
  <text x="500" y="108" class="h">Speedup queue  (flop-weighted)</text>

  <g transform="translate(500, 130)">
    <rect x="0" y="0" width="320" height="490" rx="8" class="queue-box"/>

    <text x="160" y="26" text-anchor="middle" class="panel-title">6 regions, highest flop weight first</text>

    <!-- queue entries: ordered by flop weight (R6=200, R4=100, R5=80, R1=50, R3=45, R2=30) -->
    <g transform="translate(16, 46)">
      <rect x="0" y="0" width="288" height="46" rx="6" class="rnode-safe"/>
      <text x="10" y="18" class="lbl">1.  R6   double → float</text>
      <text x="10" y="36" class="sub-sm">flop weight: 200  ·  1 mul, 1 add, 1 sub</text>
    </g>
    <g transform="translate(16, 102)">
      <rect x="0" y="0" width="288" height="46" rx="6" class="rnode-safe"/>
      <text x="10" y="18" class="lbl">2.  R4   double → float</text>
      <text x="10" y="36" class="sub-sm">flop weight: 100  ·  1 div, 1 add, 1 sub</text>
    </g>
    <g transform="translate(16, 158)">
      <rect x="0" y="0" width="288" height="46" rx="6" class="rnode-safe"/>
      <text x="10" y="18" class="lbl">3.  R5   double → float</text>
      <text x="10" y="36" class="sub-sm">flop weight: 80  ·  1 sqrt, 1 mul, 1 add</text>
    </g>
    <g transform="translate(16, 214)">
      <rect x="0" y="0" width="288" height="46" rx="6" class="rnode-safe"/>
      <text x="10" y="18" class="lbl">4.  R1   double → float</text>
      <text x="10" y="36" class="sub-sm">flop weight: 50  ·  2 add, 2 mul</text>
    </g>
    <g transform="translate(16, 270)">
      <rect x="0" y="0" width="288" height="46" rx="6" class="rnode-sing"/>
      <text x="10" y="18" class="lbl">5.  R3   double → float</text>
      <text x="10" y="36" class="sub-sm">flop weight: 45  ·  1 log, 1 add  (log)</text>
    </g>
    <g transform="translate(16, 326)">
      <rect x="0" y="0" width="288" height="46" rx="6" class="rnode-warn"/>
      <text x="10" y="18" class="lbl">6.  R2   double → float</text>
      <text x="10" y="36" class="sub-sm">flop weight: 30  ·  2 mul, 1 sub  (cancel)</text>
    </g>

    <!-- Prune-check callout -->
    <g transform="translate(16, 400)">
      <text x="0" y="0" class="lbl">Prune check at dequeue</text>
      <text x="0" y="18" class="sub-sm">float_range_ok: R2 flagged — target downgraded</text>
      <text x="0" y="34" class="sub-sm">from float to ff before Patcher sees it</text>
      <text x="0" y="52" class="sub-sm">chain-dedup: reuse ff-shim built for R2 in correctness</text>
    </g>
  </g>

  <!-- ============ RIGHT: walk trace + result ============ -->
  <text x="850" y="108" class="h">Walk trace</text>

  <g transform="translate(850, 130)">
    <rect x="0" y="0" width="410" height="360" rx="8" class="box"/>

    <!-- header -->
    <rect x="0" y="0" width="410" height="26" fill="#e2e8f0" stroke="#64748b" stroke-width="1"/>
    <text x="10" y="18" class="th">step</text>
    <text x="50" y="18" class="th">region</text>
    <text x="115" y="18" class="th">attempt</text>
    <text x="240" y="18" class="th">verdict</text>
    <text x="320" y="18" class="th">new state</text>

    <!-- rows -->
    <g font-size="12" fill="#172033">
      <!-- step 1: R6 double->float accept -->
      <rect x="0" y="26" width="410" height="28" fill="#f8fafc" stroke="#e2e8f0"/>
      <text x="10" y="44">1</text>
      <text x="50" y="44">R6</text>
      <text x="115" y="44">double → float</text>
      <text x="240" y="44" class="verdict-accept">accept</text>
      <text x="320" y="44">R6 = float</text>

      <!-- step 2: R4 double->float reject (cascade already bumped R4 to dd) -->
      <rect x="0" y="54" width="410" height="46" fill="#fee2e2" stroke="#fca5a5"/>
      <text x="10" y="74">2</text>
      <text x="50" y="74">R4</text>
      <text x="115" y="74">double → float</text>
      <text x="240" y="74" class="verdict-reject">reject</text>
      <text x="320" y="74">R4 = dd (unchanged)</text>
      <text x="50" y="92" class="sub-sm" font-style="italic">already at dd from correctness; float cascade fails against dd oracle</text>

      <!-- step 3: R5 double->float accept -->
      <rect x="0" y="100" width="410" height="28" fill="#fff" stroke="#e2e8f0"/>
      <text x="10" y="118">3</text>
      <text x="50" y="118">R5</text>
      <text x="115" y="118">double → float</text>
      <text x="240" y="118" class="verdict-accept">accept</text>
      <text x="320" y="118">R5 = float</text>

      <!-- step 4: R1 double->float accept -->
      <rect x="0" y="128" width="410" height="28" fill="#f8fafc" stroke="#e2e8f0"/>
      <text x="10" y="146">4</text>
      <text x="50" y="146">R1</text>
      <text x="115" y="146">double → float</text>
      <text x="240" y="146" class="verdict-accept">accept</text>
      <text x="320" y="146">R1 = float</text>

      <!-- step 5: R3 double->float reject (log near root, high pred_err_float) -->
      <rect x="0" y="156" width="410" height="46" fill="#fee2e2" stroke="#fca5a5"/>
      <text x="10" y="176">5</text>
      <text x="50" y="176">R3</text>
      <text x="115" y="176">double → float</text>
      <text x="240" y="176" class="verdict-reject">reject</text>
      <text x="320" y="176">R3 = ff (unchanged)</text>
      <text x="50" y="194" class="sub-sm" font-style="italic">log-near-root: 24-bit mantissa can't hold small-argument precision</text>

      <!-- step 6: R2 double->float DOWNGRADED to ff by float_range_ok prune (no-op since already at ff) -->
      <rect x="0" y="202" width="410" height="46" fill="#fef3c7" stroke="#fcd34d"/>
      <text x="10" y="222">6</text>
      <text x="50" y="222">R2</text>
      <text x="115" y="222">double → ff</text>
      <text x="240" y="222" class="verdict-downgrade">prune → ff</text>
      <text x="320" y="222">R2 = ff (unchanged)</text>
      <text x="50" y="240" class="sub-sm" font-style="italic">float_range_ok = ✗  →  target downgraded from float to ff; dedup skips build</text>
    </g>

    <g transform="translate(10, 264)">
      <text x="0" y="0" class="sub-sm">Same no-retry rule: each (region, target) pair tried at most once.</text>
      <text x="0" y="16" class="sub-sm">R4 rejects float, keeps its correctness-phase dd — no rollback.</text>
      <text x="0" y="38" class="sub-sm">R2's float_range_ok prune preserves the demotion on the safer</text>
      <text x="0" y="54" class="sub-sm">rung; chain-dedup avoids re-building an already-existing ff shim.</text>
    </g>
  </g>

  <!-- Final precision distribution -->
  <g transform="translate(850, 520)">
    <text x="0" y="0" class="h">Final precision distribution</text>
    <rect x="0" y="14" width="410" height="80" rx="6" class="box"/>

    <text x="16" y="38" class="lbl">dd: 1</text>
    <text x="120" y="38" class="sub">R4</text>

    <text x="16" y="60" class="lbl">float: 3</text>
    <text x="120" y="60" class="sub">R1, R5, R6</text>

    <text x="16" y="82" class="lbl">ff: 2</text>
    <text x="120" y="82" class="sub">R2 (range-safety pruned), R3 (float rejected)</text>
  </g>
</svg>
